<?xml version="1.0" encoding="utf-8"?>
<!-- Generator: Adobe Illustrator 23.0.2, SVG Export Plug-In . SVG Version: 6.00 Build 0)  -->
<svg version="1.1" id="Layer_1" xmlns="http://www.w3.org/2000/svg" xmlns:xlink="http://www.w3.org/1999/xlink" x="0px" y="0px"
	 viewBox="0 0 1383.97 504.56" style="enable-background:new 0 0 1383.97 504.56;" xml:space="preserve">
<style type="text/css">
	.st0{fill:#FFFFFF;}
</style>
<g>
	<g>
		<path class="st0" d="M527.69,473.43H85.4V31.14h442.29V473.43z M95.4,463.43h422.29V41.14H95.4V463.43z"/>
	</g>
	<g>
		<polygon class="st0" points="753.55,215.84 682.83,215.84 682.83,109.08 669.23,109.08 669.23,228.08 753.55,228.08 		"/>
		<path class="st0" d="M829.71,219.24h2.72v8.84h10.37v-68.51l-16.32-16.49h-51.34v12.24h45.39l9.35,9.35v10.71H779.9l-15.47,15.64
			v22.95l14.11,14.11H819L829.71,219.24z M784.49,215.84l-7.14-6.97v-12.75l8.5-8.5h44.03v15.98l-14.79,12.24H784.49z"/>
		<polygon class="st0" points="877.48,213.29 935.45,161.27 935.45,143.08 864.73,143.08 864.73,155.32 921,155.32 921,157.87 
			863.03,209.89 863.03,228.08 936.98,228.08 936.98,215.84 877.48,215.84 		"/>
		<path class="st0" d="M1006.51,228.08l10.71-8.84h2.72v8.84h10.37v-68.51l-16.32-16.49h-51.34v12.24h45.39l9.35,9.35v10.71h-49.98
			l-15.47,15.64v22.95l14.11,14.11H1006.51z M964.86,196.12l8.5-8.5h44.03v15.98l-14.79,12.24H972l-7.14-6.97V196.12z"/>
		<polygon class="st0" points="1068.9,150.39 1066.01,150.39 1066.01,143.08 1055.64,143.08 1055.64,228.08 1068.56,228.08 
			1068.56,166.03 1081.14,155.32 1111.91,155.32 1111.91,143.08 1077.57,143.08 		"/>
		<polygon class="st0" points="1186.03,220.43 1188.75,220.43 1188.75,228.08 1199.12,228.08 1199.12,143.08 1186.2,143.08 
			1186.2,204.96 1173.28,215.84 1146.76,215.84 1136.22,205.47 1136.22,143.08 1123.3,143.08 1123.3,210.57 1140.81,228.08 
			1177.02,228.08 		"/>
		<polygon class="st0" points="1284.45,178.78 1242.8,178.78 1235.67,171.64 1235.67,162.29 1242.8,155.32 1294.31,155.32 
			1294.31,143.08 1236.85,143.08 1222.75,157.19 1222.75,176.74 1236.85,191.02 1278.51,191.02 1285.64,197.99 1285.64,208.87 
			1278.51,215.84 1223.59,215.84 1223.76,228.08 1284.62,228.08 1298.56,213.97 1298.56,192.89 		"/>
		<polygon class="st0" points="765.62,281.18 765.62,276.08 753.04,276.08 714.62,329.12 682.83,329.12 682.83,276.08 
			669.23,276.08 669.23,395.08 682.83,395.08 682.83,341.19 714.79,341.19 755.59,395.08 768.68,395.08 768.68,389.98 
			726.52,334.73 		"/>
		<polygon class="st0" points="800.47,317.39 797.58,317.39 797.58,310.08 787.21,310.08 787.21,395.08 800.13,395.08 
			800.13,333.03 812.71,322.32 843.48,322.32 843.48,310.08 809.14,310.08 		"/>
		<path class="st0" d="M872.89,310.08l-18.87,19.04v46.92l18.87,19.04h56.95v-12.24h-51l-11.9-11.9v-11.22h69.19v-30.6l-19.04-19.04
			H872.89z M923.04,347.48h-56.1v-13.26l11.9-11.9h32.3l11.9,11.9V347.48z"/>
		<path class="st0" d="M963.33,310.08v12.24h45.39l9.35,9.35v10.71h-49.98l-15.47,15.64v22.95l14.11,14.11h40.46l10.71-8.84h2.72
			v8.84h10.37v-68.51l-16.32-16.49H963.33z M1018.07,370.6l-14.79,12.24h-30.6l-7.14-6.97v-12.75l8.5-8.5h44.03V370.6z"/>
		<polygon class="st0" points="1076.04,379.78 1076.04,322.32 1107.49,322.32 1107.49,310.08 1076.04,310.08 1076.04,287.98 
			1063.12,287.98 1063.12,310.08 1046.12,310.08 1046.12,322.32 1063.12,322.32 1063.12,384.88 1073.32,395.08 1108.34,395.08 
			1108.34,382.84 1079.27,382.84 		"/>
		<rect x="1124.83" y="276.08" class="st0" width="15.3" height="15.3"/>
		<rect x="1126.02" y="310.08" class="st0" width="12.92" height="85"/>
		<polygon class="st0" points="1198.61,382.67 1195.89,382.67 1167.33,310.08 1155.09,310.08 1155.09,314.67 1187.05,395.08 
			1206.77,395.08 1239.07,314.67 1239.07,310.08 1227.51,310.08 		"/>
	</g>
	<g>
		<g>
			<polygon class="st0" points="255.44,109.3 163.56,109.3 163.56,303.39 163.56,395.26 255.44,395.26 449.53,395.26 449.53,303.39 
				255.44,303.39 			"/>
		</g>
		<g>
			<polygon class="st0" points="449.53,109.3 292.85,109.3 292.85,265.98 449.53,265.98 370.42,187.64 			"/>
		</g>
	</g>
</g>
</svg>
