<?xml version="1.0" encoding="utf-8"?>
<!-- Generator: Adobe Illustrator 23.0.2, SVG Export Plug-In . SVG Version: 6.00 Build 0)  -->
<svg version="1.1" id="Layer_1" xmlns="http://www.w3.org/2000/svg" xmlns:xlink="http://www.w3.org/1999/xlink" x="0px" y="0px"
	 viewBox="0 0 1000 1000" style="enable-background:new 0 0 1000 1000;" xml:space="preserve">
<style type="text/css">
	.st0{fill:#FFFFFF;}
</style>
<g>
	<g>
		<g>
			<path class="st0" d="M499.19,950.38c-248.13,0-450-201.87-450-450c0-248.13,201.87-450,450-450c248.13,0,450,201.87,450,450
				C949.19,748.51,747.32,950.38,499.19,950.38z M499.19,98.81c-221.43,0-401.57,180.14-401.57,401.57
				c0,221.43,180.14,401.57,401.57,401.57c221.43,0,401.57-180.14,401.57-401.57C900.76,278.96,720.62,98.81,499.19,98.81z"/>
		</g>
	</g>
	<g>
		<g>
			<path class="st0" d="M669.99,426.33c-122.98,0-123.14,122.52-123.14,123.15c0,0-8.42,122.67,123.14,122.67
				c0,0,99.03,5.63,108.93-72.36c0.87-6.88-4.47-13.01-11.4-13.01h-34.42c-4.99,0-9.49,3.18-10.91,7.97
				c-3.02,10.19-13.58,26.52-50.32,26.52c0,0-47.68,3.17-55.31-42.61c-1.15-6.89,4.39-13.11,11.37-13.11H770.9
				c6.16,0,11.26-4.84,11.47-10.99C783.48,521.67,777.46,426.33,669.99,426.33z M623.46,522.62c-4.55,0-7.79-4.41-6.39-8.74
				c4.58-14.17,17.97-40.58,54.18-40.58c37.32,0,46.14,27.89,48.21,41.72c0.6,4.01-2.58,7.6-6.64,7.6H623.46z M475.75,494.07
				c-4.03-1.33-4.62-6.84-0.83-8.76c13.73-6.97,29.9-22.19,29.9-55.23c0-57.27-39.95-85.37-90.68-85.37H255.71
				c-4.65,0-8.42,3.77-8.42,8.42v303.88c0,4.65,3.77,8.42,8.42,8.42h158.41c0,0,101.92,3.13,101.92-94.73
				C516.05,570.7,519.47,508.51,475.75,494.07z M320.81,407.75c0-3.36,2.72-6.08,6.08-6.08h87.24c0,0,22.63,0,22.63,33.4
				c0,33.4-13.27,38.24-28.41,38.24h-81.47c-3.36,0-6.08-2.73-6.08-6.08V407.75z M409.46,608.47h-82.57c-3.36,0-6.08-2.72-6.08-6.08
				v-73.67c0-3.36,2.72-6.08,6.08-6.08h87.24c0,0,33.87-0.31,33.72,44.17C447.85,604.25,422.73,608.16,409.46,608.47z
				 M601.01,357.51v27.43c0,3.33,2.7,6.03,6.03,6.03h120.3c3.33,0,6.03-2.7,6.03-6.03v-27.43c0-3.33-2.7-6.03-6.03-6.03h-120.3
				C603.71,351.48,601.01,354.18,601.01,357.51z"/>
		</g>
	</g>
</g>
</svg>
