<?xml version="1.0" encoding="utf-8"?>
<!-- Generator: Adobe Illustrator 23.0.2, SVG Export Plug-In . SVG Version: 6.00 Build 0)  -->
<svg version="1.1" id="Layer_1" xmlns="http://www.w3.org/2000/svg" xmlns:xlink="http://www.w3.org/1999/xlink" x="0px" y="0px"
	 viewBox="0 0 1000 1000" style="enable-background:new 0 0 1000 1000;" xml:space="preserve">
<style type="text/css">
	.st0{fill:#FFFFFF;}
</style>
<g>
	<g>
		<g>
			<path class="st0" d="M499.19,950.07c-248.13,0-450-201.87-450-450c0-248.13,201.87-450,450-450c248.13,0,450,201.87,450,450
				C949.19,748.21,747.32,950.07,499.19,950.07z M499.19,98.51c-221.43,0-401.58,180.14-401.58,401.57
				c0,221.43,180.15,401.57,401.58,401.57c221.43,0,401.57-180.14,401.57-401.57C900.77,278.65,720.62,98.51,499.19,98.51z"/>
		</g>
		<g>
			<g>
				<path class="st0" d="M753.6,534.34v168.02c0,4.15-3.37,7.52-7.52,7.52h-86.74c-4.15,0-7.52-3.37-7.52-7.52V546.1
					c0-41.12-14.69-69.21-51.54-69.21c-28.12,0-44.83,18.91-52.21,37.21c-2.68,6.54-3.37,15.63-3.37,24.81v163.44
					c0,4.15-3.37,7.52-7.52,7.52h-86.71c-4.17,0-7.54-3.35-7.52-7.52c0.19-41.61,1.07-243.52,0.18-290.97
					c-0.08-4.2,3.31-7.61,7.51-7.61h86.54c4.15,0,7.52,3.37,7.52,7.52v35.86c-0.2,0.34-0.49,0.68-0.68,1h0.68v-1
					c13.53-20.81,37.65-50.57,91.73-50.57C703.39,396.59,753.6,440.34,753.6,534.34L753.6,534.34z M292.42,709.88h86.71
					c4.15,0,7.52-3.37,7.52-7.52V411.29c0-4.15-3.37-7.52-7.52-7.52h-86.71c-4.15,0-7.52,3.37-7.52,7.52v291.07
					C284.9,706.52,288.27,709.88,292.42,709.88z"/>
			</g>
		</g>
	</g>
	<g>
		<circle class="st0" cx="332.73" cy="310.36" r="54.48"/>
	</g>
</g>
</svg>
