<?xml version="1.0" encoding="utf-8"?>
<!-- Generator: Adobe Illustrator 23.0.2, SVG Export Plug-In . SVG Version: 6.00 Build 0)  -->
<svg version="1.1" id="Layer_1" xmlns="http://www.w3.org/2000/svg" xmlns:xlink="http://www.w3.org/1999/xlink" x="0px" y="0px"
	 viewBox="0 0 1000 1000" style="enable-background:new 0 0 1000 1000;" xml:space="preserve">
<style type="text/css">
	.st0{fill:#FFFFFF;}
</style>
<g>
	<g>
		<g>
			<g>
				<path class="st0" d="M499.19,950.37c-248.13,0-450-201.87-450-450c0-248.13,201.87-450,450-450c248.13,0,450,201.87,450,450
					C949.19,748.5,747.32,950.37,499.19,950.37z M499.19,98.8c-221.43,0-401.57,180.14-401.57,401.57
					c0,221.43,180.14,401.57,401.57,401.57c221.43,0,401.57-180.14,401.57-401.57C900.76,278.94,720.62,98.8,499.19,98.8z"/>
			</g>
		</g>
	</g>
	<path class="st0" d="M655.86,544.61c-26.36,0-51.06-11.16-73.5-29.33l5.46-25.65l0.24-0.95c4.87-27.31,20.3-73.14,67.8-73.14
		c35.62,0,64.59,28.97,64.59,64.59C720.33,515.64,691.36,544.61,655.86,544.61L655.86,544.61z M655.86,350.13
		c-60.67,0-107.69,39.42-126.81,104.25c-29.21-43.81-51.29-96.41-64.24-140.7h-65.3v169.91c0,33.48-27.31,60.79-60.79,60.79
		s-60.79-27.31-60.79-60.79V313.68h-65.3v169.91c-0.24,69.58,56.4,126.69,125.98,126.69c69.58,0,126.21-57.11,126.21-126.69v-28.49
		c12.7,26.48,28.26,53.19,47.14,76.94L471.94,720.1h66.85l28.97-136.42c25.41,16.27,54.62,26.48,88.1,26.48
		c71.59,0,129.89-58.65,129.89-130.25C785.75,408.42,727.45,350.13,655.86,350.13L655.86,350.13z"/>
</g>
</svg>
